<?xml version="1.0" encoding="UTF-8" standalone="no"?>
<svg
   version="1.1"
   width="10.002520cm"
   height="5.196840cm"
   viewBox="0 0 39380 20460"
   id="svg198"
   sodipodi:docname="small-paintbrush-hotswap-mxplate-brd.svg"
   inkscape:version="1.2.2 (b0a8486541, 2022-12-01)"
   xmlns:inkscape="http://www.inkscape.org/namespaces/inkscape"
   xmlns:sodipodi="http://sodipodi.sourceforge.net/DTD/sodipodi-0.dtd"
   xmlns="http://www.w3.org/2000/svg"
   xmlns:svg="http://www.w3.org/2000/svg">
  <defs
     id="defs202" />
  <sodipodi:namedview
     id="namedview200"
     pagecolor="#ffffff"
     bordercolor="#000000"
     borderopacity="0.25"
     inkscape:showpageshadow="2"
     inkscape:pageopacity="0.0"
     inkscape:pagecheckerboard="0"
     inkscape:deskcolor="#d1d1d1"
     inkscape:document-units="cm"
     showgrid="false"
     inkscape:zoom="8"
     inkscape:cx="80.9375"
     inkscape:cy="171.625"
     inkscape:window-width="1920"
     inkscape:window-height="1011"
     inkscape:window-x="0"
     inkscape:window-y="0"
     inkscape:window-maximized="1"
     inkscape:current-layer="g196" />
  <title
     id="title2">SVG Picture created as small-paintbrush-hotswap-mxplate-brd.svg date 2021/09/15 13:04:07 </title>
  <desc
     id="desc4">Picture generated by PCBNEW </desc>
  <g
     style="fill:#000000; fill-opacity:1;stroke:#000000; stroke-opacity:1; stroke-linecap:round; stroke-linejoin:round;"
     transform="translate(0 0) scale(1 1)"
     id="g6" />
  <g
     style="fill:#000000; fill-opacity:0.0;  stroke:#000000; stroke-width:-0.000393701; stroke-opacity:1;  stroke-linecap:round; stroke-linejoin:round;"
     id="g8" />
  <g
     style="fill:#C22D42; fill-opacity:0.0;  stroke:#C22D42; stroke-width:-0.000393701; stroke-opacity:1;  stroke-linecap:round; stroke-linejoin:round;"
     id="g10" />
  <g
     style="fill:#C22D42; fill-opacity:0.0;  stroke:#C22D42; stroke-width:19.685; stroke-opacity:1;  stroke-linecap:round; stroke-linejoin:round;"
     id="g196">
    <path
       d="M2765 14550 L9 14550 "
       id="path12" />
    <path
       d="M2765 16321 L2765 14550 "
       id="path14" />
    <path
       d="M 8630.709,16321 H 2767.3308"
       id="path16"
       style="stroke-width:21.8921"
       sodipodi:nodetypes="cc" />
    <path
       d="m 8630.5589,14550 0.1501,1771"
       id="path18"
       sodipodi:nodetypes="cc" />
    <path
       d="m 8671,14550 h -35.4958"
       id="path20"
       sodipodi:nodetypes="cc" />
    <path
       d="M9 19274 L9 14550 "
       id="path30" />
    <path
       d="M13001 770 L8671 770 "
       id="path32" />
    <path
       d="M8671 14550 L8671 770 "
       id="path34" />
    <path
       d="M39379 1951 L39379 19274 "
       id="path36" />
    <path
       d="m 38198,20455 -37008,0.119"
       id="path38"
       sodipodi:nodetypes="cc" />
    <path
       d="m 13001.974,770 20659.444,0.0788"
       id="path40"
       style="stroke-width:19.6849"
       sodipodi:nodetypes="cc" />
    <path
       d="M38198.8 20455.7 A1181.1 1181.1 0.0 0 0 39379.9 19274.6"
       id="path42" />
    <path
       d="m 39379.9,1951.77 c 0,-313.2474 -124.437,-613.665 -345.936,-835.1645 -221.499,-221.4994 -521.896,-346.13303 -835.144,-346.13303"
       id="path44"
       sodipodi:nodetypes="csc" />
    <path
       d="M9.84291 19274.6 A1181.1 1181.1 0.0 0 0 1190.95 20455.7"
       id="path46" />
    <path
       d="M32687 18585 L32687 13467 "
       id="path48" />
    <path
       d="M38001 18782 L32883 18782 "
       id="path50" />
    <path
       d="M38198 13467 L38198 18585 "
       id="path52" />
    <path
       d="M32883 13270 L38001 13270 "
       id="path54" />
    <path
       d="M32883.9 13270.7 A196.85 196.85 0.0 0 0 32687 13467.5"
       id="path56" />
    <path
       d="M32687 18585.6 A196.85 196.85 0.0 0 0 32883.9 18782.5"
       id="path58" />
    <path
       d="M38002 18782.5 A196.85 196.85 0.0 0 0 38198.8 18585.6"
       id="path60" />
    <path
       d="M38198.8 13467.5 A196.85 196.85 0.0 0 0 38002 13270.7"
       id="path62" />
    <path
       d="M32687 11105 L32687 5987 "
       id="path64" />
    <path
       d="M38001 11302 L32883 11302 "
       id="path66" />
    <path
       d="M38198 5987 L38198 11105 "
       id="path68" />
    <path
       d="M32883 5790 L38001 5790 "
       id="path70" />
    <path
       d="M32883.9 5790.35 A196.85 196.85 0.0 0 0 32687 5987.2"
       id="path72" />
    <path
       d="M32687 11105.3 A196.85 196.85 0.0 0 0 32883.9 11302.2"
       id="path74" />
    <path
       d="M38002 11302.2 A196.85 196.85 0.0 0 0 38198.8 11105.3"
       id="path76" />
    <path
       d="M38198.8 5987.2 A196.85 196.85 0.0 0 0 38002 5790.35"
       id="path78" />
    <path
       d="M25206 16715 L25206 11597 "
       id="path80" />
    <path
       d="M30521 16912 L25403 16912 "
       id="path82" />
    <path
       d="M30718 11597 L30718 16715 "
       id="path84" />
    <path
       d="M25403 11400 L30521 11400 "
       id="path86" />
    <path
       d="M25403.5 11400.6 A196.85 196.85 0.0 0 0 25206.7 11597.4"
       id="path88" />
    <path
       d="M25206.7 16715.6 A196.85 196.85 0.0 0 0 25403.5 16912.4"
       id="path90" />
    <path
       d="M30521.7 16912.4 A196.85 196.85 0.0 0 0 30718.5 16715.6"
       id="path92" />
    <path
       d="M30718.5 11597.4 A196.85 196.85 0.0 0 0 30521.7 11400.6"
       id="path94" />
    <path
       d="M10246 9235 L10246 4117 "
       id="path96" />
    <path
       d="M15561 9432 L10442 9432 "
       id="path98" />
    <path
       d="M15757 4117 L15757 9235 "
       id="path100" />
    <path
       d="M10442 3920 L15561 3920 "
       id="path102" />
    <path
       d="M10442.9 3920.28 A196.85 196.85 0.0 0 0 10246.1 4117.13"
       id="path104" />
    <path
       d="M10246.1 9235.24 A196.85 196.85 0.0 0 0 10442.9 9432.09"
       id="path106" />
    <path
       d="M15561 9432.09 A196.85 196.85 0.0 0 0 15757.9 9235.24"
       id="path108" />
    <path
       d="M15757.9 4117.13 A196.85 196.85 0.0 0 0 15561 3920.28"
       id="path110" />
    <path
       d="M10246 16715 L10246 11597 "
       id="path112" />
    <path
       d="M15561 16912 L10442 16912 "
       id="path114" />
    <path
       d="M15757 11597 L15757 16715 "
       id="path116" />
    <path
       d="M10442 11400 L15561 11400 "
       id="path118" />
    <path
       d="M10442.9 11400.6 A196.85 196.85 0.0 0 0 10246.1 11597.4"
       id="path120" />
    <path
       d="M10246.1 16715.6 A196.85 196.85 0.0 0 0 10442.9 16912.4"
       id="path122" />
    <path
       d="M15561 16912.4 A196.85 196.85 0.0 0 0 15757.9 16715.6"
       id="path124" />
    <path
       d="M15757.9 11597.4 A196.85 196.85 0.0 0 0 15561 11400.6"
       id="path126" />
    <path
       d="M17726 15778 L17726 10660 "
       id="path128" />
    <path
       d="M23041 15975 L17923 15975 "
       id="path130" />
    <path
       d="M23238 10660 L23238 15778 "
       id="path132" />
    <path
       d="M17923 10463 L23041 10463 "
       id="path134" />
    <path
       d="M17923.2 10463.6 A196.85 196.85 0.0 0 0 17726.4 10660.4"
       id="path136" />
    <path
       d="M17726.4 15778.5 A196.85 196.85 0.0 0 0 17923.2 15975.4"
       id="path138" />
    <path
       d="M23041.3 15975.4 A196.85 196.85 0.0 0 0 23238.2 15778.5"
       id="path140" />
    <path
       d="M23238.2 10660.4 A196.85 196.85 0.0 0 0 23041.3 10463.6"
       id="path142" />
    <path
       d="M25206 9235 L25206 4117 "
       id="path144" />
    <path
       d="M30521 9432 L25403 9432 "
       id="path146" />
    <path
       d="M30718 4117 L30718 9235 "
       id="path148" />
    <path
       d="M25403 3920 L30521 3920 "
       id="path150" />
    <path
       d="M25403.5 3920.28 A196.85 196.85 0.0 0 0 25206.7 4117.13"
       id="path152" />
    <path
       d="M25206.7 9235.24 A196.85 196.85 0.0 0 0 25403.5 9432.09"
       id="path154" />
    <path
       d="M30521.7 9432.09 A196.85 196.85 0.0 0 0 30718.5 9235.24"
       id="path156" />
    <path
       d="M30718.5 4117.13 A196.85 196.85 0.0 0 0 30521.7 3920.28"
       id="path158" />
    <path
       d="M17726 8298 L17726 3180 "
       id="path160" />
    <path
       d="M23041 8495 L17923 8495 "
       id="path162" />
    <path
       d="M23238 3180 L23238 8298 "
       id="path164" />
    <path
       d="M17923 2983 L23041 2983 "
       id="path166" />
    <path
       d="M17923.2 2983.27 A196.85 196.85 0.0 0 0 17726.4 3180.12"
       id="path168" />
    <path
       d="M17726.4 8298.23 A196.85 196.85 0.0 0 0 17923.2 8495.08"
       id="path170" />
    <path
       d="M23041.3 8495.08 A196.85 196.85 0.0 0 0 23238.2 8298.23"
       id="path172" />
    <path
       d="M23238.2 3180.12 A196.85 196.85 0.0 0 0 23041.3 2983.27"
       id="path174" />
    <g
       id="g176" />
    <g
       id="g178" />
    <g
       id="g180" />
    <g
       id="g182" />
    <g
       id="g184" />
    <g
       id="g186" />
    <g
       id="g188" />
    <g
       id="g190" />
    <g
       id="g192" />
    <g
       id="g194" />
    <path
       style="fill:#000000;stroke-width:19.685;stroke-dasharray:none"
       d="m 37208.663,770.47247 990.157,0 z"
       id="path1229"
       sodipodi:nodetypes="ccc" />
    <path
       style="fill:#000000;stroke-width:19.685;stroke-dasharray:none"
       d="M 33661.418,770.07877 V 3073.6222 Z"
       id="path2687"
       sodipodi:nodetypes="ccc" />
    <path
       style="fill:#000000;stroke-width:19.685;stroke-dasharray:none"
       d="m 33661.418,3073.6222 h 3547.245 z"
       id="path2689"
       sodipodi:nodetypes="ccc" />
    <path
       style="fill:#000000;stroke-width:19.685;stroke-dasharray:none"
       d="m 37208.663,770.47247 1.54,2303.14973 z"
       id="path2691"
       sodipodi:nodetypes="ccc" />
    <path
       style="fill:#000000;stroke-width:19.685;stroke-dasharray:none"
       d="m 3779.5277,17809.449 2204.7245,0 z"
       id="path7049"
       sodipodi:nodetypes="ccc" />
    <path
       style="fill:#000000;stroke-width:19.685;stroke-dasharray:none"
       d="m 3779.5277,16663.78 2204.7245,0"
       id="path10681"
       sodipodi:nodetypes="cc" />
    <path
       style="fill:#000000;stroke-width:19.685;stroke-dasharray:none"
       d="m 3779.5277,16663.78 v 1145.669"
       id="path10683"
       sodipodi:nodetypes="cc" />
    <path
       style="fill:#000000;stroke-width:19.685;stroke-dasharray:none"
       d="m 5984.2522,16663.78 v 1145.669"
       id="path10748"
       sodipodi:nodetypes="cc" />
  </g>
</svg>
